<svg width="148" height="148" viewBox="0 0 148 148" fill="none" xmlns="http://www.w3.org/2000/svg">
<path d="M54.519 32.6113C48.6167 32.9358 43.6463 35.2883 39.6078 39.669C35.7247 44.0496 32.9289 49.0792 31.2203 54.7578C29.5117 60.2741 28.6574 67.8996 28.6574 73.7405C28.6574 79.5813 29.4341 87.2879 30.9873 92.9665C32.6959 98.6451 35.5694 103.675 39.6078 108.055C43.6463 112.274 48.6167 114.545 54.519 114.87H131.405C141.19 115.843 146.549 121.441 147.481 131.662C147.326 136.205 145.695 140.018 142.588 143.1C139.482 146.021 135.754 147.481 131.405 147.481H57.0819H46.3645C35.4917 146.832 26.5605 142.532 19.5709 134.582C12.5813 126.47 7.53325 117.303 4.42676 107.082C1.47559 96.8604 0 84.4486 0 73.7405C0 65.7904 0.854287 55.9746 2.56286 48.1868C4.27143 40.3991 6.91195 33.0169 10.4844 26.0404C14.2122 18.9016 19.105 12.8174 25.1626 7.78777C31.3756 2.75817 38.4429 0.162245 46.3645 0H50.7912H131.405C141.19 0.973471 146.549 6.57093 147.481 16.7924C147.481 21.3352 145.85 25.148 142.588 28.2307C139.482 31.1511 135.754 32.6113 131.405 32.6113H54.519Z" fill="#208388"/>
</svg>
