<svg xmlns="http://www.w3.org/2000/svg" fill="none" viewBox="0 0 500 500"><path fill="#208388" d="M74.519 208.611c-5.9023.325-10.8727 2.677-14.9112 7.058-3.8831 4.381-6.6789 9.41-8.3875 15.089-1.7086 5.516-2.5629 13.142-2.5629 18.982 0 5.841.7767 13.548 2.3299 19.227 1.7086 5.678 4.5821 10.708 8.6205 15.088 4.0385 4.219 9.0089 6.49 14.9112 6.815h76.886c9.785.973 15.144 6.571 16.076 16.792-.155 4.543-1.786 8.356-4.893 11.438-3.106 2.921-6.834 4.381-11.183 4.381H66.3645c-10.8728-.649-19.804-4.949-26.7936-12.899-6.9896-8.112-12.0376-17.279-15.1441-27.5C21.4756 272.86 20 260.449 20 249.74c0-7.95.8543-17.765 2.5629-25.553 1.7085-7.788 4.3491-15.17 7.9215-22.147 3.7278-7.138 8.6206-13.223 14.6782-18.252 6.213-5.03 13.2803-7.626 21.2019-7.788h85.0405c9.785.973 15.144 6.571 16.076 16.792 0 4.543-1.631 8.356-4.893 11.439-3.106 2.92-6.834 4.38-11.183 4.38H74.519ZM225.511 208.611c-5.902.325-10.872 2.677-14.911 7.058-3.883 4.381-6.679 9.41-8.387 15.089-1.709 5.516-2.563 13.142-2.563 18.982 0 5.841.776 13.548 2.33 19.227 1.708 5.678 4.582 10.708 8.62 15.088 4.039 4.219 9.009 6.49 14.911 6.815h76.886c9.786.973 15.144 6.571 16.076 16.792-.155 4.543-1.786 8.356-4.892 11.438-3.107 2.921-6.835 4.381-11.184 4.381H217.357c-10.873-.649-19.804-4.949-26.794-12.899-6.989-8.112-12.037-17.279-15.144-27.5-2.951-10.222-4.427-22.633-4.427-33.342 0-7.95.855-17.765 2.563-25.553 1.709-7.788 4.349-15.17 7.922-22.147 3.728-7.138 8.62-13.223 14.678-18.252 6.213-5.03 13.28-7.626 21.202-7.788H302.397c9.786.973 15.144 6.571 16.076 16.792 0 4.543-1.631 8.356-4.892 11.439-3.107 2.92-6.835 4.38-11.184 4.38h-76.886ZM447.389 230.519c-.325-5.902-2.677-10.873-7.058-14.911-4.381-3.883-9.41-6.679-15.089-8.388-5.516-1.708-13.142-2.563-18.982-2.563-5.841 0-13.548.777-19.227 2.33-5.678 1.709-10.708 4.582-15.088 8.621-4.219 4.038-6.49 9.009-6.815 14.911v76.886c-.973 9.785-6.571 15.144-16.792 16.076-4.543-.155-8.356-1.786-11.438-4.893-2.921-3.106-4.381-6.834-4.381-11.183v-85.041c.649-10.872 4.949-19.803 12.899-26.793 8.112-6.99 17.279-12.038 27.5-15.144C383.14 177.476 395.551 176 406.26 176c7.95 0 17.765.854 25.553 2.563 7.788 1.708 15.17 4.349 22.147 7.921 7.138 3.728 13.223 8.621 18.252 14.679 5.03 6.213 7.626 13.28 7.788 21.201v85.041c-.973 9.785-6.571 15.144-16.792 16.076-4.543 0-8.356-1.631-11.439-4.893-2.92-3.106-4.38-6.834-4.38-11.183v-76.886Z"/></svg>